<svg xmlns="http://www.w3.org/2000/svg" width="500" height="500" viewBox="0 0 500 500"><path fill="#FFF" d="M244.952 1.5L30.366 125.39v247.79L244.952 497.07l214.584-123.89V125.39L244.952 1.5zm106.926 64.044l104.178 60.147-104.178 60.15V65.544zm0 125.563l100.897 58.255-100.897 58.253V191.107zM32.368 127.15l105.718 61.09-105.72 61.04V127.15zm0 122.295L137.04 309.88 32.367 370.315v-120.87zM138.152 433.1L33.4 372.623l104.753-60.48V433.1zm0-125.484l-100.9-58.254 100.9-58.256v116.51zm0-122.242L34.357 125.396 138.153 65.47v119.904zm106.8 309.384l-106.096-61.252 106.156-61.288 106.092 61.253-106.153 61.288zM349.36 311.975v117.58l-101.828-58.79 101.828-58.79zm-104.344 57.337l-102.94-59.433 103.3-59.644 102.9 59.46-103.26 59.616zm2.874-120.528l101.47-58.586v117.22l-101.47-58.634zm99.426-60.31l-101.94 58.858-102.262-59.09 101.9-58.834 102.302 59.066zm-99.786-60.52L349.36 69.16v117.59l-101.83-58.796zM140.667 186.75V69.16l101.83 58.795-101.83 58.795zm102.194 62.034l-102.193 59.003V189.73l102.194 59.054zm-.363 121.982l-101.83 58.79V311.973l101.83 58.794zm2.52-244.264L138.73 65.136 244.953 3.81l106.283 61.363-106.22 61.33zm212.517 245.524l-.697.402-104.96 60.598V311.778l102.716 59.354 1.258-2.18-102.546-59.255 104.23-60.176v122.506zm0-122.82l-105.187-60.733 105.187-60.73v121.463z"/><path d="M139.517 310.425V188.147L245.41 127.01l105.89 61.137v122.278l-105.89 61.137"/><path fill="#F7EC1D" d="M245.41 374.45l-108.395-62.582V186.704l108.394-62.58 108.39 62.58V311.87l-108.39 62.58zm-103.393-65.47l103.394 59.694 103.393-59.694V189.59L245.41 129.896 142.017 189.59v119.39z"/><path fill="#F7EC1D" d="M244.06 311.73c-17.14 0-33.264-6.647-45.43-18.733-12.22-12.14-18.978-28.31-19.032-45.533-.084-24.775 14.357-47.695 36.79-58.39l4.947 10.382c-18.437 8.79-30.307 27.62-30.238 47.97.044 14.153 5.6 27.44 15.64 37.417 9.994 9.934 23.246 15.395 37.326 15.395h.188c14.157-.05 27.444-5.604 37.42-15.647 9.973-10.04 15.437-23.36 15.382-37.512-.062-20.35-12.062-39.1-30.563-47.77l4.88-10.412c22.51 10.547 37.104 33.37 37.187 58.142.062 17.22-6.588 33.438-18.727 45.657-12.14 12.22-28.312 18.98-45.54 19.04-.08-.006-.153-.006-.23-.006z"/><path fill="#F7EC1D" d="M239.466 171.596h11.5v77.99h-11.5z"/></svg>